<svg xmlns="http://www.w3.org/2000/svg" xmlns:xl="http://www.w3.org/1999/xlink" xmlns:dc="http://purl.org/dc/elements/1.1/" version="1.1" viewBox="0 0 100 100" x="0px" y="0px"><metadata> Produced by OmniGraffle 6.0.5 </metadata><g stroke="none" stroke-opacity="1" stroke-dasharray="none" fill="none" fill-opacity="1"><title>Canvas 1</title><g><title>Layer 1</title><path d="M 73.87602 46 L 83.87602 46 L 83.87602 47 L 73.87602 47 Z M 73.87602 49 L 83.87602 49 L 83.87602 50 L 73.87602 50 Z M 73.87602 52 L 83.87602 52 L 83.87602 53 L 73.87602 53 Z M 74 55 L 84 55 L 84 56 L 74 56 Z M 8.0000017 47.4772 L 10.0757235 49.643173 C 17.320024 42.695005 28.82577 42.786793 35.95748 49.91854 C 39.109317 53.07036 40.886144 57.076497 41.28796 61.191548 C 57.79507 61.422044 85.87602 61 85.87602 61 C 85.87602 61 85.87602 48 85.87602 45 C 85.87602 42 83.785224 40 81.69443 40 C 80.875227 40 73.97105 40 65.876017 40 L 65.87602 27.347826 L 65.87602 26.173913 C 65.87602 25.525579 65.35044 25 64.702105 25 L 63.41812 25 C 63.248875 25 63.085165 25.060276 62.95633 25.170025 C 62.656936 25.425063 62.62098 25.87452 62.87602 26.173913 L 63.398505 26.787266 C 63.706733 27.1491 63.87602 27.60888 63.87602 28.084199 L 63.87602 28.0842 L 63.876017 40 C 51.73265 40 37.876019 40 37.876019 40 L 34.451112 44.876453 C 26.254707 39.63053 15.277233 40.497446 8 47.477201 Z M 33.004297 36.210977 C 33.736356 35.51331 34.360723 34.749868 34.76204 34.017445 C 35.779036 32.161402 34.97855 31.20742 32.974104 31.886666 C 30.969664 32.565902 28.520318 34.621148 27.503333 36.477188 C 26.486338 38.333231 27.286824 39.287213 29.29127 38.607968 C 30.1158 38.328563 31.015612 37.816323 31.86004 37.18089 L 35.57328 41.606157 L 36.50692 40.38524 Z M 82.828428 69.171572 C 84.39053 70.73367 84.39053 73.266324 82.828428 74.82842 C 81.26633 76.390524 78.733676 76.390524 77.17158 74.82842 C 75.609476 73.266324 75.609476 70.73367 77.17158 69.171572 C 78.733676 67.60947 81.26633 67.60947 82.828428 69.171572 M 79 65.07137 C 77.554824 65.278814 76.16207 65.938442 75.05026 67.050254 C 72.31658 69.783922 72.31658 74.21607 75.05026 76.94974 C 77.78393 79.68342 82.216078 79.68342 84.949746 76.94974 C 87.68343 74.21607 87.68343 69.783922 84.949746 67.050254 C 83.837937 65.93844 82.44518 65.27881 81 65.071368 L 81 62 L 79 62 Z M 21.840909 46.11898 L 21.346985 47.416059 C 20.717839 47.481996 20.091906 47.58573 19.472866 47.727262 L 18.583834 46.659986 C 17.842081 46.858662 17.111152 47.10836 16.396602 47.409083 L 16.350586 48.796713 C 15.779095 49.06264 15.220273 49.364724 14.677563 49.702962 L 13.491221 48.982828 C 12.85924 49.410052 12.249629 49.884427 11.6673274 50.405956 L 12.07446 51.733642 C 12.002912 51.802577 11.9318566 51.87232 11.861304 51.942873 C 11.479688 52.324487 11.1217485 52.720812 10.787486 53.130023 L 9.430235 52.833816 C 8.959609 53.4554 8.5373854 54.10195 8.1635637 54.768333 L 8.979484 55.89154 C 8.6880264 56.459627 8.4333697 57.041722 8.2155127 57.634286 L 6.836799 57.79469 C 6.596681 58.530944 6.408129 59.280345 6.2711434 60.037247 L 7.4080613 60.83502 C 7.318179 61.46268 7.266203 62.094725 7.2521327 62.727456 L 6 63.326934 C 6.011146 64.09832 6.0744764 64.869093 6.1899914 65.633503 L 7.5232657 66.01858 C 7.6406834 66.639924 7.7956954 67.255563 7.9883014 67.861846 L 6.998123 68.83594 C 7.257139 69.557435 7.566475 70.26492 7.9261326 70.952946 L 9.3132577 70.884194 C 9.625148 71.43034 9.9723676 71.9618 10.3549165 72.475243 L 9.735332 73.716754 C 10.119712 74.194816 10.533741 74.656916 10.9774217 75.100595 C 11.0851174 75.20829 11.193899 75.31424 11.30373 75.418442 L 12.5923916 74.90341 C 13.0731636 75.327354 13.573614 75.716967 14.0905556 76.07225 L 13.9074455 77.44929 C 14.564387 77.865757 15.24366 78.23277 15.939962 78.550335 L 16.99229 77.64416 C 17.5816 77.886894 18.182649 78.09236 18.791832 78.26055 L 19.065498 79.621093 C 19.818426 79.799348 20.581151 79.92565 21.347962 80 L 22.048971 78.801345 C 22.68119 78.839285 23.31526 78.839285 23.947478 78.801345 L 24.648486 80 C 25.415299 79.92565 26.178023 79.799347 26.930951 79.62109 L 27.204617 78.26055 C 27.813802 78.092358 28.414851 77.886893 29.00416 77.644157 L 30.056487 78.550334 C 30.75279 78.23277 31.432063 77.865756 32.089003 77.44929 L 31.905893 76.072248 C 32.422837 75.716965 32.923287 75.32735 33.40406 74.903406 L 34.69272 75.41844 C 34.80255 75.31424 34.91133 75.20829 35.019026 75.100595 C 35.462707 74.656915 35.876737 74.194814 36.261116 73.71675 L 35.641532 72.47524 C 36.024082 71.961795 36.371301 71.430337 36.683191 70.88419 L 38.070316 70.952945 C 38.429973 70.264916 38.73931 69.557433 38.998324 68.83594 L 38.008146 67.861844 C 38.200753 67.25556 38.355765 66.63992 38.473182 66.01858 L 39.806457 65.6335 C 39.92197 64.86909 39.985301 64.09832 39.996447 63.326932 L 38.744314 62.727454 C 38.730244 62.09472 38.678268 61.462677 38.588386 60.835016 L 39.725304 60.037246 C 39.588318 59.280343 39.399766 58.53094 39.159647 57.79469 L 37.780933 57.634285 C 37.563076 57.04172 37.30842 56.459624 37.016963 55.891536 L 37.832883 54.76833 C 37.45906 54.101948 37.036837 53.455398 36.566211 52.833814 L 35.20896 53.13002 C 34.874697 52.72081 34.516759 52.324487 34.135143 51.942873 C 34.06459 51.87232 33.993534 51.802575 33.921986 51.73364 L 34.329119 50.405955 C 33.746816 49.884425 33.137205 49.41005 32.505224 48.982828 L 31.318882 49.70296 C 30.776171 49.364722 30.21735 49.06264 29.64586 48.796712 L 29.599844 47.409083 C 28.885293 47.10836 28.154363 46.858661 27.412612 46.659986 L 26.523579 47.727262 C 25.904538 47.58573 25.278605 47.481996 24.649461 47.416058 L 24.155538 46.11898 C 23.384954 46.066718 22.611491 46.066719 21.840908 46.11898 Z M 28.656848 57.343152 C 31.781056 60.467344 31.781056 65.532656 28.656848 68.65685 C 25.532656 71.781056 20.467344 71.781056 17.343152 68.65685 C 14.218944 65.532656 14.218944 60.467344 17.343152 57.343152 C 20.467344 54.218944 25.532656 54.218944 28.656848 57.343152 M 26.53553 59.46447 C 24.58291 57.51184 21.41709 57.51184 19.46447 59.46447 C 17.51184 61.41709 17.51184 64.58291 19.46447 66.53553 C 21.41709 68.48816 24.58291 68.48816 26.53553 66.53553 C 28.48816 64.58291 28.48816 61.41709 26.53553 59.46447" fill="black"></path></g></g></svg>